<svg width="252" height="75" viewBox="0 0 252 75" fill="none" xmlns="http://www.w3.org/2000/svg">
<rect width="252" height="75" fill="white" fill-opacity="0.8"/>
<path d="M250.328 66.1459C250.328 67.0899 250.143 68.0246 249.783 68.8966C249.423 69.7686 248.896 70.5608 248.231 71.2279C247.566 71.895 246.776 72.424 245.907 72.7845C245.039 73.145 244.108 73.3301 243.168 73.3291H8.83212C6.93282 73.3311 5.11049 72.5755 3.76591 71.2284C2.42133 69.8814 1.66458 68.0532 1.66211 66.1459V8.86204C1.66458 6.9539 2.42103 5.12474 3.76534 3.77619C5.10966 2.42764 6.93196 1.66993 8.83212 1.66943H243.166C244.106 1.66943 245.038 1.85549 245.906 2.21697C246.775 2.57846 247.565 3.10829 248.23 3.77621C248.895 4.44413 249.422 5.23705 249.782 6.10969C250.142 6.98232 250.327 7.91758 250.326 8.86204L250.328 66.1459Z" fill="white"/>
<path d="M243.168 75H8.83224C6.49252 74.9995 4.24856 74.067 2.59273 72.407C0.936894 70.747 0.00445184 68.4952 0 66.1457L0 8.86369C0.00346128 6.51298 0.935288 4.25964 2.59107 2.59796C4.24684 0.936292 6.49136 0.00198408 8.83224 0L243.166 0C245.506 0.00297409 247.75 0.9376 249.406 2.59906C251.062 4.26052 251.994 6.51329 251.998 8.86369V66.1457C252.002 71.0295 248.033 75 243.168 75Z" fill="#A6A6A6"/>
<path d="M250.328 66.1459C250.328 67.0899 250.143 68.0246 249.783 68.8966C249.423 69.7686 248.896 70.5608 248.231 71.2279C247.566 71.895 246.776 72.424 245.907 72.7845C245.039 73.145 244.108 73.3301 243.168 73.3291H8.83212C6.93282 73.3311 5.11049 72.5755 3.76591 71.2284C2.42133 69.8814 1.66458 68.0532 1.66211 66.1459V8.86204C1.66458 6.9539 2.42103 5.12474 3.76534 3.77619C5.10966 2.42764 6.93196 1.66993 8.83212 1.66943H243.166C244.106 1.66943 245.038 1.85549 245.906 2.21697C246.775 2.57846 247.565 3.10829 248.23 3.77621C248.895 4.44413 249.422 5.23705 249.782 6.10969C250.142 6.98232 250.327 7.91758 250.326 8.86204L250.328 66.1459Z" fill="black"/>
<path d="M56.2688 37.1053C56.2147 31.0605 61.1976 28.1197 61.4255 27.9828C58.6034 23.851 54.2293 23.2865 52.6922 23.2415C49.0185 22.8532 45.455 25.4489 43.5836 25.4489C41.6748 25.4489 38.793 23.279 35.687 23.3427C31.6902 23.4046 27.9511 25.7284 25.9004 29.3369C21.6683 36.6945 24.8246 47.5069 28.8794 53.4542C30.9077 56.3687 33.2777 59.619 36.38 59.5046C39.4149 59.3808 40.5486 57.5634 44.2111 57.5634C47.84 57.5634 48.9046 59.5046 52.0684 59.4314C55.3257 59.3808 57.3764 56.5056 59.3337 53.5667C61.6776 50.2301 62.6189 46.9405 62.6563 46.7717C62.5816 46.7454 56.3323 44.3485 56.2688 37.1053ZM50.2923 19.3291C51.9246 17.2792 53.0415 14.4903 52.7315 11.6602C50.3689 11.7652 47.4142 13.3012 45.7127 15.3062C44.2074 17.0729 42.8627 19.9687 43.2101 22.6919C45.864 22.8907 48.589 21.3472 50.2923 19.3291Z" fill="white"/>
<path d="M243.168 0H117.65L166.813 75H243.168C245.508 74.998 247.752 74.0642 249.407 72.4034C251.063 70.7425 251.995 68.4901 252 66.1401V8.86369C251.996 6.51314 251.064 4.26008 249.408 2.59851C247.753 0.936947 245.508 0.00247928 243.168 0V0Z" fill="url(#paint0_linear)"/>
<path d="M100.228 59.0862H95.987L93.6636 51.7548H85.5877L83.3745 59.0862H79.2451L87.2481 34.1268H92.19L100.228 59.0862ZM92.9632 48.6789L90.8621 42.1615C90.6398 41.4957 90.2215 39.9278 89.6089 37.4596H89.5341C89.2876 38.5211 88.8935 40.0891 88.3538 42.1615L86.2881 48.6789H92.9632ZM120.769 49.8661C120.769 52.927 119.942 55.3464 118.285 57.1225C116.802 58.7036 114.959 59.4932 112.761 59.4932C110.387 59.4932 108.68 58.6435 107.643 56.9406V66.3838H103.661V47.0041C103.661 45.0817 103.611 43.1105 103.514 41.0887H107.016L107.238 43.9414H107.313C108.64 41.792 110.656 40.7174 113.36 40.7174C115.474 40.7174 117.239 41.5557 118.651 43.2343C120.061 44.9166 120.769 47.126 120.769 49.8661ZM116.713 50.0124C116.713 48.2607 116.32 46.8165 115.532 45.6781C114.671 44.4947 113.515 43.902 112.066 43.902C111.083 43.902 110.191 44.2321 109.393 44.8829C108.594 45.5393 108.071 46.3964 107.826 47.458C107.717 47.855 107.655 48.2635 107.641 48.6752V51.6779C107.641 52.9851 108.041 54.0898 108.84 54.9938C109.64 55.894 110.678 56.346 111.956 56.346C113.455 56.346 114.623 55.7628 115.457 54.6056C116.294 53.4446 116.713 51.9142 116.713 50.0124ZM141.383 49.8661C141.383 52.927 140.555 55.3464 138.899 57.1225C137.414 58.7036 135.572 59.4932 133.372 59.4932C130.998 59.4932 129.291 58.6435 128.255 56.9406V66.3838H124.273V47.0041C124.273 45.0817 124.223 43.1105 124.125 41.0887H127.627L127.85 43.9414H127.924C129.25 41.792 131.266 40.7174 133.972 40.7174C136.084 40.7174 137.849 41.5557 139.265 43.2343C140.673 44.9166 141.383 47.126 141.383 49.8661ZM137.324 50.0124C137.324 48.2607 136.93 46.8165 136.142 45.6781C135.281 44.4947 134.129 43.902 132.679 43.902C131.697 43.902 130.804 44.2321 130.003 44.8829C129.204 45.5393 128.683 46.3964 128.438 47.458C128.316 47.9531 128.251 48.3563 128.251 48.6752V51.6779C128.251 52.9851 128.653 54.0898 129.448 54.9938C130.248 55.8922 131.286 56.346 132.567 56.346C134.069 56.346 135.236 55.7628 136.069 54.6056C136.906 53.4446 137.324 51.9142 137.324 50.0124ZM164.43 52.0849C164.43 54.2098 163.69 55.9372 162.22 57.2707C160.603 58.7261 158.345 59.4556 155.45 59.4556C152.776 59.4556 150.631 58.938 149.014 57.9008L149.935 54.568C151.681 55.6071 153.599 56.1247 155.687 56.1247C157.189 56.1247 158.356 55.7834 159.189 55.1063C160.024 54.4274 160.446 53.5196 160.446 52.3868C160.446 51.3722 160.097 50.5226 159.411 49.8305C158.722 49.1403 157.583 48.497 155.982 47.9062C151.631 46.2764 149.453 43.8926 149.453 40.7568C149.453 38.7087 150.222 37.032 151.758 35.721C153.293 34.4119 155.329 33.7573 157.861 33.7573C160.123 33.7573 162.007 34.1531 163.503 34.9427L162.504 38.2023C161.096 37.4371 159.507 37.0545 157.729 37.0545C156.324 37.0545 155.222 37.4014 154.434 38.0916C153.771 38.7087 153.435 39.4608 153.435 40.3535C153.435 41.3382 153.818 42.1559 154.58 42.7973C155.241 43.3881 156.447 44.0314 158.192 44.7216C160.332 45.5881 161.905 46.5971 162.911 47.7562C163.926 48.9152 164.43 50.3613 164.43 52.0849ZM177.629 44.0895H173.24V52.8276C173.24 55.0501 174.013 56.1585 175.563 56.1585C176.275 56.1585 176.865 56.0985 177.332 55.9728L177.442 59.0093C176.658 59.3037 175.625 59.4519 174.345 59.4519C172.773 59.4519 171.544 58.9699 170.657 58.0059C169.773 57.0419 169.329 55.427 169.329 53.1539V44.082H166.714V41.0812H169.329V37.7859L173.24 36.6006V41.0812H177.629V44.0895ZM197.392 49.9393C197.392 52.7057 196.604 54.9769 195.032 56.753C193.386 58.5817 191.197 59.4932 188.469 59.4932C185.835 59.4932 183.742 58.6173 182.18 56.8674C180.619 55.1138 179.838 52.9045 179.838 50.2394C179.838 47.4505 180.645 45.1661 182.253 43.39C183.865 41.612 186.035 40.723 188.764 40.723C191.393 40.723 193.506 41.6007 195.105 43.3525C196.632 45.0517 197.392 47.246 197.392 49.9393ZM193.265 50.0312C193.265 48.3826 192.91 46.9685 192.198 45.785C191.364 44.3559 190.168 43.6413 188.62 43.6413C187.025 43.6413 185.802 44.3559 184.969 45.785C184.255 46.9685 183.9 48.407 183.9 50.1062C183.9 51.7566 184.255 53.1745 184.969 54.3542C185.83 55.7834 187.031 56.498 188.586 56.498C190.109 56.498 191.302 55.7684 192.165 54.3186C192.897 53.107 193.265 51.6835 193.265 50.0312ZM210.341 44.6053C209.927 44.5302 209.507 44.4932 209.086 44.4947C207.685 44.4947 206.602 45.0235 205.84 46.0888C205.179 47.0266 204.846 48.2119 204.846 49.6429V59.0862H200.864V46.7565C200.868 44.8672 200.829 42.9781 200.749 41.0906H204.217L204.363 44.534H204.473C204.895 43.3506 205.556 42.396 206.464 41.6814C207.295 41.057 208.304 40.7188 209.342 40.7174C209.71 40.7174 210.042 40.7436 210.337 40.7905L210.341 44.6053ZM228.149 49.236C228.159 49.8438 228.111 50.4512 228.004 51.0496H216.058C216.103 52.8276 216.682 54.1892 217.791 55.127C218.798 55.9634 220.1 56.3835 221.698 56.3835C223.467 56.3835 225.081 56.1022 226.532 55.5339L227.156 58.3078C225.46 59.0505 223.458 59.42 221.147 59.42C218.368 59.42 216.187 58.5985 214.599 56.9593C213.016 55.3183 212.222 53.1126 212.222 50.35C212.222 47.638 212.96 45.378 214.437 43.5756C215.983 41.6514 218.073 40.6892 220.703 40.6892C223.286 40.6892 225.241 41.6514 226.569 43.5756C227.621 45.1004 228.149 46.991 228.149 49.236ZM224.352 48.1988C224.38 47.0116 224.119 45.9894 223.579 45.1248C222.89 44.0108 221.829 43.4556 220.408 43.4556C219.106 43.4556 218.045 43.9976 217.238 45.0854C216.575 45.9501 216.181 46.9891 216.06 48.195L224.352 48.1988Z" fill="white"/>
<path d="M84.4393 25.3024C83.3318 25.3024 82.3737 25.248 81.5762 25.1561V13.089C82.6916 12.916 83.8187 12.8307 84.9473 12.8339C89.5138 12.8339 91.6168 15.0902 91.6168 18.7681C91.6168 23.0105 89.1328 25.3024 84.4393 25.3024ZM85.1079 14.3812C84.4916 14.3812 83.9668 14.4187 83.5316 14.5088V23.6819C83.767 23.7194 84.2189 23.7363 84.8539 23.7363C87.846 23.7363 89.5493 22.0258 89.5493 18.8225C89.5493 15.9661 88.0084 14.3812 85.1079 14.3812ZM98.1705 25.3943C95.5968 25.3943 93.929 23.4644 93.929 20.8443C93.929 18.1135 95.6323 16.1667 98.3162 16.1667C100.852 16.1667 102.558 18.0047 102.558 20.6999C102.558 23.4644 100.8 25.3943 98.1705 25.3943ZM98.2452 17.6034C96.8314 17.6034 95.9255 18.9312 95.9255 20.788C95.9255 22.6091 96.85 23.937 98.2265 23.937C99.603 23.937 100.527 22.5172 100.527 20.7505C100.527 18.95 99.6217 17.6034 98.2452 17.6034ZM117.234 16.3487L114.479 25.1936H112.684L111.543 21.3525C111.259 20.413 111.023 19.4596 110.835 18.4961H110.798C110.654 19.4601 110.381 20.426 110.092 21.3525L108.878 25.1936H107.064L104.472 16.3487H106.484L107.481 20.5536C107.716 21.5551 107.914 22.5003 108.078 23.3931H108.116C108.26 22.6485 108.495 21.7183 108.841 20.5723L110.092 16.3505H111.687L112.884 20.4823C113.174 21.4838 113.409 22.4666 113.592 23.395H113.644C113.771 22.4853 113.971 21.5195 114.242 20.4823L115.312 16.3505L117.234 16.3487ZM127.375 25.1936H125.418V20.1147C125.418 18.5505 124.82 17.7665 123.642 17.7665C122.482 17.7665 121.685 18.7681 121.685 19.9328V25.1936H119.727V18.8768C119.727 18.0948 119.709 17.2564 119.654 16.3468H121.376L121.468 17.7122H121.522C122.049 16.7669 123.117 16.1667 124.314 16.1667C126.163 16.1667 127.377 17.5865 127.377 19.8971L127.375 25.1936ZM132.773 25.1936H130.814V12.29H132.773V25.1936ZM139.909 25.3943C137.338 25.3943 135.668 23.4644 135.668 20.8443C135.668 18.1135 137.371 16.1667 140.053 16.1667C142.591 16.1667 144.295 18.0047 144.295 20.6999C144.296 23.4644 142.537 25.3943 139.909 25.3943ZM139.982 17.6034C138.568 17.6034 137.662 18.9312 137.662 20.788C137.662 22.6091 138.589 23.937 139.962 23.937C141.34 23.937 142.263 22.5172 142.263 20.7505C142.264 18.95 141.36 17.6034 139.982 17.6034ZM152.012 25.1936L151.87 24.1752H151.818C151.22 24.9948 150.348 25.3943 149.242 25.3943C147.664 25.3943 146.543 24.284 146.543 22.7911C146.543 20.608 148.428 19.4789 151.691 19.4789V19.3157C151.691 18.151 151.076 17.5677 149.862 17.5677C148.994 17.5677 148.232 17.7872 147.561 18.2242L147.163 16.9319C147.978 16.4218 148.994 16.1667 150.187 16.1667C152.488 16.1667 153.65 17.3858 153.65 19.8259V23.0836C153.65 23.9764 153.689 24.6684 153.777 25.1955L152.012 25.1936ZM151.743 20.788C149.569 20.788 148.478 21.3169 148.478 22.5716C148.478 23.5 149.04 23.9539 149.821 23.9539C150.817 23.9539 151.743 23.1905 151.743 22.1534V20.788ZM163.154 25.1936L163.063 23.7738H163.009C162.447 24.8466 161.502 25.3943 160.181 25.3943C158.058 25.3943 156.485 23.5188 156.485 20.8799C156.485 18.1135 158.115 16.1649 160.342 16.1649C161.52 16.1649 162.355 16.5643 162.826 17.3671H162.865V12.29H164.824V22.8098C164.824 23.665 164.845 24.4659 164.897 25.1936H163.154ZM162.865 19.989C162.865 18.7512 162.049 17.6953 160.803 17.6953C159.352 17.6953 158.465 18.9875 158.465 20.8068C158.465 22.5904 159.385 23.8113 160.764 23.8113C161.995 23.8113 162.865 22.7367 162.865 21.4632V19.989ZM177.246 25.3943C174.674 25.3943 173.006 23.4644 173.006 20.8443C173.006 18.1135 174.71 16.1667 177.392 16.1667C179.93 16.1667 181.633 18.0047 181.633 20.6999C181.635 23.4644 179.878 25.3943 177.246 25.3943ZM177.319 17.6034C175.907 17.6034 175.001 18.9312 175.001 20.788C175.001 22.6091 175.926 23.937 177.3 23.937C178.679 23.937 179.601 22.5172 179.601 20.7505C179.605 18.95 178.699 17.6034 177.319 17.6034ZM192.159 25.1936H190.2V20.1147C190.2 18.5505 189.603 17.7665 188.424 17.7665C187.264 17.7665 186.469 18.7681 186.469 19.9328V25.1936H184.509V18.8768C184.509 18.0948 184.491 17.2564 184.437 16.3468H186.159L186.25 17.7122H186.304C186.829 16.7669 187.899 16.1649 189.095 16.1649C190.944 16.1649 192.159 17.5846 192.159 19.8953V25.1936ZM205.328 17.8228H203.175V22.1177C203.175 23.2112 203.552 23.7569 204.314 23.7569C204.66 23.7569 204.949 23.7194 205.183 23.665L205.237 25.158C204.858 25.3042 204.35 25.3774 203.718 25.3774C202.176 25.3774 201.253 24.5222 201.253 22.2828V17.8228H199.968V16.3487H201.253V14.7282L203.175 14.1449V16.3468H205.328V17.8228ZM215.69 25.1936H213.735V20.1522C213.735 18.5693 213.139 17.7684 211.959 17.7684C210.945 17.7684 209.999 18.4605 209.999 19.8615V25.1936H208.044V12.29H209.999V17.6034H210.039C210.655 16.6394 211.548 16.1649 212.687 16.1649C214.551 16.1649 215.69 17.6203 215.69 19.9328V25.1936ZM226.306 21.2438H220.432C220.47 22.9186 221.573 23.8638 223.208 23.8638C224.076 23.8638 224.876 23.7176 225.581 23.4456L225.886 24.811C225.053 25.1748 224.072 25.3568 222.931 25.3568C220.176 25.3568 218.546 23.6088 218.546 20.8987C218.546 18.1867 220.216 16.148 222.711 16.148C224.961 16.148 226.373 17.8228 226.373 20.3529C226.386 20.6515 226.363 20.9505 226.306 21.2438ZM224.511 19.8427C224.511 18.4774 223.826 17.5134 222.575 17.5134C221.45 17.5134 220.561 18.4961 220.434 19.8427H224.511Z" fill="white"/>
<defs>
<linearGradient id="paint0_linear" x1="184.823" y1="75.1991" x2="184.823" y2="-195.287" gradientUnits="userSpaceOnUse">
<stop stop-color="#1A1A1A" stop-opacity="0.1"/>
<stop offset="0.123" stop-color="#212121" stop-opacity="0.151"/>
<stop offset="0.308" stop-color="#353535" stop-opacity="0.227"/>
<stop offset="0.532" stop-color="#575757" stop-opacity="0.318"/>
<stop offset="0.783" stop-color="#858585" stop-opacity="0.421"/>
<stop offset="1" stop-color="#B3B3B3" stop-opacity="0.51"/>
</linearGradient>
</defs>
</svg>
