<svg width="16" height="15" viewBox="0 0 16 15" fill="none" xmlns="http://www.w3.org/2000/svg">
<path d="M15.4008 6.53533L7.99561 14.1379L0.590388 6.53533C0.452238 6.39833 0.232052 6.40228 0.0985977 6.5441C-0.0315638 6.68247 -0.0315638 6.90181 0.0985977 7.04015L7.75006 14.8948C7.88586 15.0342 8.10601 15.0342 8.24185 14.8948L15.8933 7.04015C16.0268 6.89833 16.0229 6.6723 15.8848 6.5353C15.75 6.40165 15.5363 6.40165 15.4015 6.5353L15.4008 6.53533Z" fill="#607D8B"/>
<path d="M15.4018 0.108983L7.99658 7.71157L0.591364 0.108983C0.453215 -0.028016 0.233029 -0.0240663 0.0995743 0.117753C-0.0305873 0.256124 -0.0305873 0.475463 0.0995743 0.613834L7.75103 8.4685C7.88683 8.60787 8.10699 8.60787 8.24282 8.4685L15.8943 0.613834C16.0324 0.476835 16.0362 0.250835 15.9028 0.108983C15.7694 -0.0328359 15.5492 -0.036752 15.411 0.100213C15.4081 0.103092 15.4053 0.106004 15.4025 0.108983H15.4018Z" fill="#607D8B"/>
<path d="M7.99533 14.9998C7.90302 14.9999 7.81443 14.9624 7.74909 14.8955L0.0976334 7.04084C-0.0358213 6.89902 -0.0319739 6.67299 0.106176 6.53599C0.240968 6.40237 0.454632 6.40237 0.589391 6.53599L7.9953 14.1379L15.4005 6.53528C15.5387 6.39829 15.7589 6.40224 15.8923 6.54405C16.0225 6.68243 16.0225 6.90176 15.8923 7.04014L8.24088 14.8948C8.1758 14.9618 8.08751 14.9995 7.99533 14.9998Z" fill="black"/>
<path d="M7.99533 8.57346C7.90302 8.57363 7.81443 8.53614 7.74909 8.4692L0.0976334 0.614537C-0.0358213 0.472718 -0.0319739 0.246685 0.106176 0.109686C0.240968 -0.0239324 0.454632 -0.0239324 0.589424 0.109686L7.99533 7.71157L15.4005 0.108983C15.534 -0.0328359 15.7542 -0.036752 15.8923 0.100213C16.0305 0.237179 16.0343 0.463212 15.9009 0.605064C15.8981 0.608043 15.8952 0.610955 15.8923 0.613834L8.24088 8.4685C8.1758 8.53547 8.0875 8.57323 7.99533 8.57346Z" fill="black"/>
</svg>
