<svg width="225" height="51" viewBox="0 0 225 51" fill="none" xmlns="http://www.w3.org/2000/svg">
<path d="M112.447 51H34.6963C30.2534 51 27.8204 45.931 30.465 42.4138L55.0066 10.5517C60.1899 3.93103 68.0178 0 76.3747 0H157.722C161.741 0 163.963 4.65517 161.424 7.75862L134.555 40.4483C129.16 47.1724 121.015 51 112.447 51Z" fill="#00D2D2"/>
<path d="M9.2031 27C9.2031 27.4138 9.09732 27.8275 8.88575 28.2413C8.77997 28.6551 8.46262 28.9655 8.14528 29.2758C7.82793 29.5862 7.4048 29.7931 6.98166 29.8965C6.55853 30 6.1354 30.1034 5.60649 30.1034H0V18.3103H5.92384C6.34697 18.3103 6.7701 18.4138 7.08745 18.6206C7.4048 18.8275 7.72214 19.0344 7.93371 19.3448C8.14528 19.6551 8.35684 19.9655 8.46262 20.2758C8.56841 20.5862 8.67419 21 8.67419 21.3103C8.67419 21.931 8.56841 22.4482 8.25106 22.9655C7.93371 23.4827 7.51058 23.7931 6.98166 24.1034C7.72214 24.3103 8.25106 24.6206 8.56841 25.2413C8.99154 25.6551 9.2031 26.2758 9.2031 27ZM1.48096 19.6551V23.5862H5.28914C5.60649 23.5862 5.81805 23.5862 6.02962 23.3793C6.24118 23.2758 6.45275 23.1724 6.66432 22.9655C6.87588 22.7586 6.98166 22.5517 7.08745 22.3448C7.19323 22.1379 7.19323 21.8275 7.19323 21.6206C7.19323 21.3103 7.19323 21.1034 7.08745 20.7931C6.98166 20.4827 6.87588 20.3793 6.7701 20.1724C6.66432 19.9655 6.45275 19.862 6.24119 19.7586C5.92384 19.6551 5.71227 19.6551 5.50071 19.6551H1.48096ZM7.72214 26.7931C7.72214 26.4827 7.72214 26.2758 7.61636 26.0689C7.51058 25.862 7.4048 25.5517 7.19323 25.4482C6.98166 25.2413 6.87588 25.1379 6.55853 25.0344C6.34697 24.8275 6.1354 24.7241 5.81805 24.7241H1.48096V28.7586H5.71227C6.02962 28.7586 6.24118 28.6551 6.45275 28.5517C6.66432 28.4482 6.87588 28.3448 7.08745 28.1379C7.29901 27.931 7.4048 27.7241 7.51058 27.5172C7.61636 27.3103 7.72214 27 7.72214 26.7931Z" fill="#C2C4C4"/>
<path d="M16.2905 28.8621C17.0309 28.8621 17.5599 28.7586 17.983 28.4483C18.4061 28.138 18.8293 27.8276 19.0408 27.4138C19.3582 27 19.4639 26.4828 19.6755 25.9655C19.7813 25.4483 19.8871 24.8276 19.8871 24.3104V18.4138H21.368V24.3104C21.368 25.138 21.2623 25.8621 21.0507 26.5862C20.8391 27.3104 20.5218 27.9311 20.2044 28.4483C19.7813 28.9655 19.2524 29.3793 18.6177 29.6897C17.983 30 17.1367 30.2069 16.2905 30.2069C15.3384 30.2069 14.4922 30 13.8575 29.6897C13.2228 29.3793 12.6938 28.9655 12.2707 28.3449C11.8476 27.8276 11.5302 27.2069 11.4245 26.4828C11.2129 25.7586 11.2129 25.0345 11.2129 24.3104V18.4138H12.6938V24.3104C12.6938 24.9311 12.7996 25.4483 12.9054 25.9655C13.0112 26.4828 13.2228 27 13.5401 27.4138C13.8575 27.8276 14.1748 28.138 14.5979 28.4483C15.0211 28.6552 15.6558 28.8621 16.2905 28.8621Z" fill="#C2C4C4"/>
<path d="M31.2059 20.7931C31.1001 20.6896 30.8885 20.4827 30.6769 20.3793C30.4654 20.2758 30.148 20.0689 29.9365 19.9655C29.7249 19.862 29.3018 19.7586 28.9844 19.6551C28.6671 19.5517 28.3497 19.5517 27.9266 19.5517C26.9745 19.5517 26.3398 19.7586 25.9167 20.0689C25.4936 20.3793 25.282 20.8965 25.282 21.5172C25.282 21.8275 25.3878 22.1379 25.4936 22.3448C25.5994 22.5517 25.8109 22.7586 26.1283 22.862C26.4456 22.9655 26.763 23.1724 27.0803 23.2758C27.3977 23.3793 27.9266 23.4827 28.4555 23.5862C29.0902 23.6896 29.6191 23.8965 30.148 24C30.6769 24.2069 31.1001 24.4137 31.4174 24.6206C31.7348 24.8275 32.0521 25.1379 32.2637 25.5517C32.4752 25.9655 32.581 26.3793 32.581 26.8965C32.581 27.4138 32.4752 27.931 32.2637 28.3448C32.0521 28.7586 31.7348 29.0689 31.3116 29.3793C30.8885 29.6896 30.4654 29.8965 29.9365 30C29.4075 30.1034 28.8786 30.2069 28.2439 30.2069C27.2919 30.2069 26.4456 30.1034 25.5994 29.7931C24.7531 29.4827 24.0126 29.0689 23.3779 28.5517L24.1184 27.3103C24.33 27.5172 24.5415 27.7241 24.8589 27.8275C25.1762 28.0344 25.4936 28.1379 25.8109 28.3448C26.1283 28.4482 26.5514 28.6551 26.9745 28.7586C27.3977 28.862 27.8208 28.862 28.3497 28.862C29.196 28.862 29.8307 28.7586 30.3596 28.4482C30.7827 28.1379 31.1001 27.7241 31.1001 27.1034C31.1001 26.7931 30.9943 26.4827 30.8885 26.2758C30.7827 26.0689 30.4654 25.862 30.2538 25.6551C30.0422 25.4482 29.6191 25.3448 29.196 25.2413C28.7729 25.1379 28.2439 25.0344 27.715 24.8275C27.0803 24.7241 26.5514 24.5172 26.1283 24.4138C25.7052 24.3103 25.282 24 24.9647 23.7931C24.6473 23.5862 24.4358 23.2758 24.2242 22.9655C24.1184 22.6551 24.0126 22.2413 24.0126 21.7241C24.0126 21.2069 24.1184 20.6896 24.33 20.2758C24.5415 19.862 24.8589 19.4482 25.1762 19.1379C25.4936 18.8275 26.0225 18.6206 26.5514 18.5172C27.0803 18.4137 27.6092 18.3103 28.2439 18.3103C29.0902 18.3103 29.8307 18.4138 30.4654 18.7241C31.1001 18.931 31.7348 19.2413 32.1579 19.6551L31.2059 20.7931Z" fill="#C2C4C4"/>
<path d="M164.704 22.8622C164.598 22.7587 164.387 22.5518 164.175 22.4484C163.963 22.3449 163.646 22.138 163.435 22.0346C163.223 21.9311 162.8 21.8277 162.482 21.7242C162.165 21.6208 161.848 21.6208 161.425 21.6208C160.473 21.6208 159.838 21.8277 159.415 22.138C158.992 22.4484 158.78 22.9656 158.78 23.5863C158.78 23.8966 158.886 24.207 158.992 24.4139C159.097 24.6208 159.309 24.8277 159.626 24.9311C159.944 25.0346 160.261 25.2415 160.578 25.3449C160.896 25.4484 161.425 25.5518 161.954 25.6553C162.588 25.7587 163.117 25.9656 163.646 26.0691C164.175 26.2759 164.598 26.4828 164.915 26.6897C165.233 26.8966 165.55 27.207 165.762 27.6208C165.973 28.0346 166.079 28.4484 166.079 28.9656C166.079 29.4828 165.973 30.0001 165.762 30.4139C165.55 30.8277 165.233 31.138 164.81 31.4484C164.387 31.7587 163.963 31.9656 163.435 32.069C162.906 32.1725 162.377 32.2759 161.742 32.2759C160.79 32.2759 159.944 32.1725 159.097 31.8622C158.251 31.5518 157.511 31.138 156.876 30.6208L157.616 29.3794C157.828 29.5863 158.04 29.7932 158.357 29.8966C158.674 30.1035 158.992 30.207 159.309 30.4139C159.626 30.5173 160.049 30.7242 160.473 30.8277C160.896 30.9311 161.319 30.9311 161.848 30.9311C162.694 30.9311 163.329 30.8277 163.858 30.5173C164.281 30.207 164.598 29.7932 164.598 29.1725C164.598 28.8622 164.492 28.5518 164.387 28.3449C164.281 28.138 163.963 27.9311 163.752 27.7242C163.54 27.5173 163.117 27.4139 162.694 27.3104C162.271 27.207 161.742 27.1035 161.213 26.8966C160.578 26.7932 160.049 26.5863 159.626 26.4828C159.203 26.3794 158.78 26.069 158.463 25.8622C158.145 25.6553 157.934 25.3449 157.722 25.0346C157.616 24.7242 157.511 24.3104 157.511 23.7932C157.511 23.2759 157.616 22.7587 157.828 22.3449C158.04 21.9311 158.357 21.5173 158.674 21.207C158.992 20.8966 159.521 20.6897 160.049 20.5863C160.578 20.4828 161.107 20.3794 161.742 20.3794C162.588 20.3794 163.329 20.4828 163.963 20.7932C164.598 21.0001 165.233 21.3104 165.656 21.7242L164.704 22.8622Z" fill="#C2C4C4"/>
<path d="M176.551 21.7242H172.426V32.1725H170.945V21.7242H166.819V20.3794H176.657V21.7242H176.551Z" fill="#C2C4C4"/>
<path d="M180.888 20.3794H182.158L187.024 32.1725H185.437L184.062 28.7587H178.984L177.609 32.1725H176.022L180.888 20.3794ZM183.639 27.5173L181.523 22.138L179.302 27.5173H183.639Z" fill="#C2C4C4"/>
<path d="M196.122 21.7242H191.996V32.1725H190.515V21.7242H186.39V20.3794H196.227V21.7242H196.122Z" fill="#C2C4C4"/>
<path d="M197.92 32.1725V20.3794H199.401V32.1725H197.92Z" fill="#C2C4C4"/>
<path d="M207.123 32.2759C206.277 32.2759 205.537 32.0691 204.796 31.7587C204.056 31.4484 203.527 30.9311 202.998 30.4139C202.469 29.8966 202.152 29.1725 201.834 28.5518C201.517 27.8277 201.411 27.1035 201.411 26.3794C201.411 25.5518 201.517 24.8277 201.834 24.1035C202.152 23.3794 202.469 22.7587 202.998 22.2415C203.527 21.7242 204.056 21.207 204.796 20.8966C205.537 20.5863 206.277 20.3794 207.018 20.3794C207.864 20.3794 208.604 20.5863 209.345 20.8966C210.085 21.207 210.614 21.7242 211.143 22.2415C211.672 22.7587 211.989 23.4828 212.307 24.1035C212.624 24.8277 212.73 25.5518 212.73 26.2759C212.73 27.1035 212.624 27.8277 212.307 28.5518C211.989 29.2759 211.672 29.8966 211.143 30.4139C210.614 30.9311 210.085 31.4484 209.345 31.7587C208.604 32.0691 207.97 32.2759 207.123 32.2759ZM203.104 26.2759C203.104 26.8966 203.209 27.4139 203.421 28.0346C203.633 28.5518 203.95 29.069 204.267 29.4828C204.585 29.8966 205.114 30.207 205.537 30.5173C205.96 30.8277 206.594 30.9311 207.229 30.9311C207.864 30.9311 208.499 30.8277 208.922 30.5173C209.451 30.207 209.874 29.8966 210.191 29.4828C210.508 29.069 210.826 28.5518 211.037 28.0346C211.249 27.5173 211.355 26.8966 211.355 26.3794C211.355 25.7587 211.249 25.2415 211.037 24.6208C210.826 24.1035 210.508 23.5863 210.191 23.1725C209.874 22.7587 209.345 22.4484 208.922 22.138C208.499 21.8277 207.864 21.7242 207.229 21.7242C206.594 21.7242 205.96 21.8277 205.537 22.138C205.114 22.4484 204.585 22.7587 204.267 23.1725C203.95 23.5863 203.633 24.1035 203.421 24.6208C203.209 25.138 203.104 25.6553 203.104 26.2759Z" fill="#C2C4C4"/>
<path d="M216.432 23.1725V32.1725H214.951V20.3794H216.115L223.52 29.4828V20.3794H225.001V32.069H223.731L216.432 23.1725Z" fill="#C2C4C4"/>
<path d="M55.0068 31.5518V18.4138H60.6133C61.248 18.4138 61.7769 18.5173 62.2001 18.8276C62.729 19.0345 63.1521 19.3449 63.4695 19.7586C63.7868 20.1724 64.1042 20.5862 64.3157 21.1035C64.5273 21.6207 64.6331 22.138 64.6331 22.6552C64.6331 23.1724 64.5273 23.6897 64.3157 24.2069C64.1042 24.7242 63.8926 25.138 63.4695 25.5518C63.0463 25.9655 62.729 26.2759 62.2001 26.4828C61.7769 26.6897 61.1422 26.7931 60.6133 26.7931H56.2762V31.6552H55.0068V31.5518ZM56.382 25.5518H60.7191C61.1422 25.5518 61.4596 25.4483 61.7769 25.3449C62.0943 25.138 62.4116 24.9311 62.6232 24.7242C62.8348 24.4138 63.0463 24.1035 63.1521 23.7931C63.2579 23.3793 63.3637 23.069 63.3637 22.6552C63.3637 22.2414 63.2579 21.8276 63.1521 21.5173C63.0463 21.1035 62.8348 20.7931 62.5174 20.5862C62.3058 20.2759 61.9885 20.069 61.6712 19.9655C61.3538 19.8621 60.9307 19.7586 60.6133 19.7586H56.382V25.5518Z" fill="#F7F9F7"/>
<path d="M72.25 31.6551C71.2979 31.6551 70.4517 31.4482 69.7112 31.1379C68.9707 30.8275 68.2302 30.2069 67.7013 29.5862C67.1724 28.9655 66.7493 28.2413 66.4319 27.4138C66.1146 26.5862 66.0088 25.7586 66.0088 24.931C66.0088 24 66.2204 23.1724 66.5377 22.4482C66.8551 21.6206 67.2782 20.8965 67.9129 20.2758C68.4418 19.6551 69.1823 19.1379 69.9227 18.8275C70.6632 18.4138 71.5095 18.3103 72.4615 18.3103C73.4136 18.3103 74.2598 18.5172 75.0003 18.931C75.7408 19.3448 76.4813 19.862 77.0102 20.4827C77.5391 21.1034 77.9622 21.8275 78.2796 22.6551C78.5969 23.4827 78.7027 24.3103 78.7027 25.1379C78.7027 26.0689 78.4912 26.8965 78.1738 27.6206C77.8565 28.4482 77.4333 29.1724 76.7986 29.7931C76.2697 30.4138 75.5292 30.931 74.7888 31.2413C74.0483 31.4482 73.202 31.6551 72.25 31.6551ZM67.2782 24.931C67.2782 25.6551 67.384 26.3793 67.5955 27C67.8071 27.6206 68.2302 28.2413 68.6534 28.7586C69.0765 29.2758 69.6054 29.6896 70.2401 30C70.8748 30.3103 71.5095 30.4138 72.25 30.4138C72.9905 30.4138 73.7309 30.2069 74.3656 29.8965C75.0003 29.5862 75.5292 29.1724 75.9524 28.6551C76.3755 28.1379 76.6928 27.5172 76.9044 26.8965C77.116 26.2758 77.2218 25.5517 77.2218 24.931C77.2218 24.2069 77.116 23.4827 76.7986 22.862C76.5871 22.2413 76.1639 21.6206 75.7408 21.1034C75.3177 20.5862 74.7888 20.1724 74.1541 19.862C73.5194 19.5517 72.8847 19.4482 72.1442 19.4482C71.4037 19.4482 70.6632 19.6551 70.0285 19.9655C69.3938 20.2758 68.8649 20.6896 68.4418 21.2069C68.0187 21.7241 67.7013 22.3448 67.4897 22.9655C67.384 23.5862 67.2782 24.3103 67.2782 24.931Z" fill="#F7F9F7"/>
<path d="M81.1357 31.5518V18.4138H82.5109V30.5173H90.3389V31.6552H81.1357V31.5518Z" fill="#F7F9F7"/>
<path d="M99.5418 19.5517H94.6758V31.6552H93.3006V19.5517H88.4346V18.4138H99.436V19.5517H99.5418Z" fill="#F7F9F7"/>
<path d="M104.514 18.4138H105.677L111.284 31.6552H109.909L108.11 27.5173H102.081L100.388 31.6552H98.9072L104.514 18.4138ZM107.793 26.3793L105.043 19.8621L102.292 26.3793H107.793Z" fill="#F7F9F7"/>
<path d="M111.919 18.4138L116.785 30L121.651 18.4138H123.026L117.42 31.6552H116.256L110.649 18.4138H111.919Z" fill="#F7F9F7"/>
<path d="M127.892 18.4138H129.055L134.662 31.6552H133.287L131.488 27.5173H125.459L123.766 31.6552H122.285L127.892 18.4138ZM131.171 26.3793L128.421 19.8621L125.67 26.3793H131.171Z" fill="#F7F9F7"/>
</svg>
