<svg width="100" height="116" viewBox="0 0 100 116" fill="none" xmlns="http://www.w3.org/2000/svg">
<path d="M57.4324 116H8.78378C8.64865 116 8.51351 116 8.37838 116C1.75676 114.378 0 108.294 0 105.319V11.2215C0 5.40802 4.86486 3.78564 7.43243 3.78564H38.5135C39.5946 3.78564 40.5405 4.86723 40.5405 6.21921C40.5405 7.57119 39.5946 8.65278 38.5135 8.65278H7.43243C7.2973 8.78798 4.05405 8.92317 4.05405 11.2215V105.319C4.05405 105.725 4.32432 109.781 9.05405 111.133H57.4324C61.8919 111.133 62.1622 106.266 62.1622 105.319V43.8043C62.1622 42.4523 63.1081 41.3707 64.1892 41.3707C65.2703 41.3707 66.2162 42.4523 66.2162 43.8043V105.319C66.2162 109.646 63.9189 116 57.4324 116Z" fill="#32EAE4"/>
<path d="M37.1622 29.4732H2.02703C0.945946 29.4732 0 28.5268 0 27.4452C0 26.3636 0.945946 25.4172 2.02703 25.4172H37.1622C38.2432 25.4172 39.1892 26.3636 39.1892 27.4452C39.1892 28.5268 38.2432 29.4732 37.1622 29.4732Z" fill="#32EAE4"/>
<path d="M62.9732 90.177H3.24345C2.16237 90.177 1.35156 89.2306 1.35156 88.1491C1.35156 87.0675 2.16237 86.1211 3.24345 86.1211H62.8381C63.9191 86.1211 64.7299 87.0675 64.7299 88.1491C64.7299 89.2306 64.0543 90.177 62.9732 90.177Z" fill="#32EAE4"/>
<path d="M37.1617 102.48H30.405C29.3239 102.48 28.3779 101.534 28.3779 100.452C28.3779 99.3707 29.3239 98.4243 30.405 98.4243H37.1617C38.2428 98.4243 39.1887 99.3707 39.1887 100.452C39.1887 101.534 38.2428 102.48 37.1617 102.48Z" fill="#32EAE4"/>
<path d="M41.8917 44.8858C37.8377 44.8858 36.4863 40.1538 36.4863 36.2331V8.65268C36.4863 3.92075 40.4052 0 45.135 0H91.2161C96.0809 0 99.9998 3.92075 99.9998 8.65268V36.0979C99.9998 40.965 96.0809 44.7506 91.3512 44.7506H62.0269C60.8107 44.7506 59.7296 43.669 59.7296 42.4522C59.7296 41.2354 60.8107 40.1538 62.0269 40.1538H91.2161C93.5134 40.1538 95.2701 38.2611 95.2701 36.0979V8.65268C95.2701 6.35431 93.3782 4.59674 91.2161 4.59674H45.135C42.8377 4.59674 41.0809 6.48951 41.0809 8.65268V36.0979C41.4863 37.7203 44.189 44.2098 42.0269 40.1538" fill="#32EAE4"/>
<path d="M45.1354 61.9207C45.0003 61.9207 44.73 61.9207 44.5949 61.9207C43.7841 61.7855 43.1084 61.1095 42.8381 60.2984L38.1084 41.7762C37.703 40.5594 38.5138 39.2074 39.73 38.937C40.9462 38.5315 42.2976 39.3426 42.5678 40.5594L46.2165 55.0256L58.7841 41.2354C59.5949 40.289 61.0814 40.1538 62.0273 41.1002C62.9733 41.9114 63.1084 43.3986 62.1624 44.345L46.757 61.1095C46.3516 61.6503 45.676 61.9207 45.1354 61.9207Z" fill="#32EAE4"/>
<path d="M64.3248 44.8858H62.8383C61.6221 44.8858 60.541 43.8042 60.541 42.5874C60.541 41.3706 61.6221 40.2891 62.8383 40.2891H64.3248C65.541 40.2891 66.6221 41.3706 66.6221 42.5874C66.6221 43.8042 65.6761 44.8858 64.3248 44.8858Z" fill="#32EAE4"/>
<path d="M54.46 32.9884V31.2308L56.7573 28.9325C62.2978 23.6597 64.8654 20.8206 64.8654 17.4406C64.8654 15.2775 63.7843 13.1143 60.541 13.1143C58.514 13.1143 56.8924 14.1959 55.9465 15.0071L55.0005 12.9791C56.487 11.6271 58.6492 10.8159 61.2167 10.8159C65.9464 10.8159 67.9735 14.0607 67.9735 17.1702C67.9735 21.2262 65.0005 24.4709 60.4059 28.9325L58.6492 30.5548V30.69H68.514V33.1236H54.46V32.9884Z" fill="#F7F9F9"/>
<path d="M80.9467 32.9885V27.0397H70.8115V25.0118L80.5412 10.9512H83.7845V24.6062H86.8926V27.0397H83.7845V32.9885H80.9467ZM80.9467 24.7414V17.4407C80.9467 16.3591 80.9467 15.1423 81.0818 14.0607H80.9467C80.271 15.2775 79.7304 16.2239 79.1899 17.3055L73.7845 24.7414H80.9467Z" fill="#F7F9F9"/>
</svg>
