<?xml version="1.0" standalone="no"?>
<!DOCTYPE svg PUBLIC "-//W3C//DTD SVG 20010904//EN"
 "http://www.w3.org/TR/2001/REC-SVG-20010904/DTD/svg10.dtd">
<svg version="1.0" xmlns="http://www.w3.org/2000/svg"
 width="260.000000pt" height="260.000000pt" viewBox="0 0 260.000000 260.000000"
 preserveAspectRatio="xMidYMid meet">
<metadata>
Created by potrace 1.11, written by Peter Selinger 2001-2013
</metadata>
<g transform="translate(0.000000,260.000000) scale(0.100000,-0.100000)"
fill="#000000" stroke="none">
<path d="M625 2238 c-11 -6 -23 -16 -27 -22 -4 -6 -8 -80 -8 -163 l0 -153 -64
0 c-97 0 -96 1 -96 -96 0 -66 -3 -86 -15 -90 -8 -3 -24 -21 -35 -39 -17 -27
-20 -49 -20 -146 0 -90 4 -120 16 -139 26 -39 45 -50 87 -50 86 0 107 39 107
194 0 119 -14 161 -60 186 -18 10 -21 19 -18 63 l3 52 48 3 47 3 0 -579 c0
-466 3 -582 13 -596 9 -12 31 -20 65 -24 l52 -5 0 -108 c0 -138 1 -139 150
-139 58 0 112 5 120 10 11 7 16 37 20 122 l5 113 288 3 287 2 0 -109 c0 -139
2 -141 143 -141 93 0 133 9 149 34 4 6 8 57 8 112 l0 101 47 6 c29 3 52 12 60
23 10 14 13 135 13 596 l0 578 50 0 50 0 0 -59 c0 -50 -3 -61 -19 -66 -11 -3
-29 -22 -40 -41 -18 -30 -21 -52 -21 -145 0 -144 24 -189 103 -189 86 0 107
37 107 190 0 118 -12 159 -50 180 -18 9 -20 21 -20 94 0 97 1 96 -96 96 l-64
0 0 153 c0 83 -4 157 -8 164 -4 6 -20 17 -35 22 -41 16 -1315 15 -1342 -1z
m1073 -147 c2 -13 -2 -28 -10 -32 -7 -5 -177 -9 -377 -9 -326 0 -366 2 -383
17 -17 15 -17 17 -1 35 15 17 37 18 392 16 l376 -3 3 -24z m107 -138 c19 -9
35 -20 35 -23 0 -4 9 -17 20 -30 19 -22 20 -37 20 -334 l-1 -311 -32 -36 c-18
-20 -47 -42 -66 -48 -48 -16 -909 -15 -963 1 -26 8 -48 24 -68 52 l-30 40 0
304 0 303 28 36 c49 63 39 62 554 63 418 0 471 -2 503 -17z m-728 -945 c45
-43 45 -88 2 -128 -36 -32 -66 -40 -156 -40 -44 0 -76 6 -103 20 -48 24 -51
30 -52 82 0 36 5 46 33 70 32 27 38 28 138 28 105 0 105 0 138 -32z m703 23
c0 -5 9 -12 19 -16 25 -7 42 -57 34 -96 -10 -51 -66 -79 -158 -79 -118 0 -180
35 -180 101 0 31 7 46 30 69 29 28 32 29 143 29 63 1 112 -3 112 -8z"/>
</g>
</svg>
