<svg width="250" height="75" viewBox="0 0 250 75" fill="none" xmlns="http://www.w3.org/2000/svg">
<rect width="250" height="75" fill="white" fill-opacity="0.8"/>
<path d="M250 64.8638C250 70.4609 245.053 75 238.951 75H11.0513C4.94887 75.0005 0 70.4613 0 64.8638V10.1353C0 4.5387 4.94887 0 11.0513 0H238.951C245.053 0 249.999 4.5387 249.999 10.1353V64.8638H250Z" fill="black"/>
<path d="M18.752 14.439V65.229L46.6778 39.8342L18.752 14.439Z" fill="url(#paint0_linear)"/>
<path d="M54.1781 33.013L42.9054 27.0443L18.752 14.2544V14.4391L46.6778 39.8343L54.1781 33.013Z" fill="url(#paint1_linear)"/>
<path d="M18.752 65.2292V65.4139L42.9054 52.6235L54.1776 46.6549L46.6778 39.8345L18.752 65.2292Z" fill="url(#paint2_linear)"/>
<path d="M54.178 33.0127L46.6777 39.834L54.1775 46.6544L67.0602 39.8335L54.178 33.0127Z" fill="url(#paint3_linear)"/>
<path d="M194.562 49.7629C193.513 49.7629 192.556 49.5854 191.689 49.2308C190.823 48.8758 190.095 48.3298 189.506 47.5937H189.331C189.448 48.4562 189.506 49.2739 189.506 50.0462V56.1242H187.068V34.7226H189.052L189.389 36.7443H189.506C190.134 35.9352 190.864 35.352 191.697 34.9925C192.529 34.633 193.485 34.4532 194.561 34.4532C196.697 34.4532 198.346 35.1229 199.506 36.4615C200.667 37.8 201.248 39.6782 201.248 42.0944C201.248 44.5204 200.657 46.4045 199.478 47.7488C198.298 49.0918 196.659 49.7629 194.562 49.7629ZM194.209 36.3534C192.563 36.3534 191.373 36.7717 190.639 37.6068C189.904 38.4423 189.527 39.7724 189.506 41.5964V42.0944C189.506 44.1703 189.884 45.655 190.639 46.5493C191.393 47.4436 192.603 47.8896 194.268 47.8896C195.66 47.8896 196.75 47.3737 197.539 46.3404C198.327 45.3076 198.721 43.8835 198.721 42.0675C198.721 40.2265 198.326 38.8126 197.539 37.8291C196.75 36.8447 195.64 36.3534 194.209 36.3534ZM206.896 49.493H204.457V28.5231H206.896V49.493ZM220.921 49.493L220.435 47.3907H220.318C219.514 48.3168 218.714 48.9439 217.915 49.2707C217.117 49.5993 216.12 49.7629 214.925 49.7629C213.329 49.7629 212.077 49.3855 211.171 48.631C210.264 47.8766 209.811 46.8034 209.811 45.4102C209.811 42.4279 212.413 40.8643 217.614 40.72L220.348 40.6389V39.7226C220.348 38.5634 220.076 37.7072 219.532 37.1554C218.989 36.6022 218.118 36.3261 216.924 36.3261C215.581 36.3261 214.063 36.7035 212.369 37.458L211.619 35.7465C212.413 35.3511 213.282 35.0414 214.228 34.8168C215.173 34.5922 216.12 34.4797 217.071 34.4797C218.991 34.4797 220.414 34.8701 221.34 35.6519C222.265 36.4337 222.728 37.687 222.728 39.4124V49.4926H220.921V49.493H220.921ZM215.41 47.9169C216.928 47.9169 218.121 47.535 218.988 46.7716C219.854 46.0082 220.289 44.9386 220.289 43.5634V42.2293L217.848 42.323C215.909 42.3871 214.511 42.6623 213.653 43.1532C212.796 43.6427 212.368 44.4043 212.368 45.4376C212.368 46.2458 212.634 46.8617 213.169 47.283C213.703 47.7058 214.449 47.9169 215.41 47.9169ZM224.144 34.7226H226.759L230.286 43.146C231.06 45.069 231.54 46.4569 231.727 47.3108H231.844C231.972 46.8518 232.239 46.0687 232.645 44.9579C233.052 43.848 234.382 40.4371 236.634 34.7226H239.251L232.329 51.5421C231.644 53.2042 230.843 54.3836 229.926 55.0811C229.01 55.7768 227.886 56.1242 226.555 56.1242C225.81 56.1242 225.075 56.048 224.349 55.8956V54.1034C224.888 54.211 225.491 54.2652 226.157 54.2652C227.833 54.2652 229.027 53.4028 229.743 51.6774L230.639 49.5755L224.144 34.7226ZM149.375 36.0952C150.149 36.6829 151.766 37.9174 151.766 40.2668C151.766 42.5516 150.351 43.6351 148.936 44.6531C148.498 45.0542 147.993 45.4882 147.993 46.1686C147.993 46.8469 148.498 47.2181 148.87 47.4964L150.083 48.3598C151.565 49.5033 152.911 50.5545 152.911 52.6869C152.911 55.5908 149.845 58.5247 144.052 58.5247C139.167 58.5247 136.81 56.3936 136.81 54.1061C136.81 52.9944 137.414 51.4196 139.404 50.3371C141.491 49.1631 144.322 49.0102 145.838 48.9152C145.365 48.3598 144.827 47.7726 144.827 46.8164C144.827 46.292 144.996 45.9826 145.164 45.6101C144.792 45.6415 144.422 45.6724 144.084 45.6724C140.515 45.6724 138.494 43.2316 138.494 40.8231C138.494 39.4016 139.202 37.8251 140.649 36.6833C142.57 35.2315 144.86 34.9835 146.681 34.9835H153.619L151.463 36.0957H149.375V36.0952H149.375ZM146.982 49.8131C146.713 49.7808 146.544 49.7808 146.209 49.7808C145.906 49.7808 144.084 49.844 142.671 50.2775C141.93 50.5227 139.773 51.2641 139.773 53.4588C139.773 55.6513 142.099 57.2293 145.704 57.2293C148.936 57.2293 150.655 55.8051 150.655 53.8914C150.656 52.3126 149.544 51.482 146.982 49.8131ZM147.96 43.9421C148.734 43.2307 148.8 42.2432 148.8 41.6865C148.8 39.4626 147.352 36.0024 144.557 36.0024C143.68 36.0024 142.738 36.4036 142.199 37.0222C141.627 37.6709 141.457 38.5042 141.457 39.3084C141.457 41.3781 142.771 44.8077 145.669 44.8077C146.511 44.8077 147.419 44.437 147.96 43.9421ZM128.167 49.3186C122.821 49.3186 119.962 45.4936 119.962 42.0383C119.962 37.9972 123.56 34.5442 128.674 34.5442C133.615 34.5442 136.71 38.09 136.71 41.8231C136.71 45.4613 133.651 49.3186 128.167 49.3186ZM132.371 46.8205C133.179 45.8325 133.381 44.5993 133.381 43.3953C133.381 40.6801 131.969 35.4991 127.798 35.4991C126.688 35.4991 125.579 35.9007 124.772 36.5498C123.46 37.6278 123.223 38.9857 123.223 40.3135C123.223 43.3648 124.872 48.3912 128.942 48.3912C130.253 48.3912 131.599 47.8062 132.371 46.8205ZM109.938 49.3186C104.591 49.3186 101.731 45.4936 101.731 42.0383C101.731 37.9972 105.331 34.5442 110.443 34.5442C115.386 34.5442 118.48 38.09 118.48 41.8231C118.481 45.4613 115.421 49.3186 109.938 49.3186ZM114.143 46.8205C114.95 45.8325 115.152 44.5993 115.152 43.3953C115.152 40.6801 113.739 35.4991 109.568 35.4991C108.459 35.4991 107.348 35.9007 106.542 36.5498C105.23 37.6278 104.995 38.9857 104.995 40.3135C104.995 43.3648 106.642 48.3912 110.713 48.3912C112.025 48.3912 113.37 47.8062 114.143 46.8205ZM99.1623 48.835L94.3263 49.8584C92.3644 50.1381 90.6068 50.3842 88.7479 50.3842C79.4142 50.3842 75.8652 44.0887 75.8652 39.1578C75.8652 33.1425 80.9026 27.562 89.5261 27.562C91.3526 27.562 93.1093 27.8095 94.6983 28.2129C97.2341 28.8643 98.4175 29.6698 99.1618 30.1356L96.3543 32.5853L95.1715 32.8323L96.0166 31.5915C94.8674 30.569 92.7691 28.6777 88.7807 28.6777C83.4379 28.6777 79.4133 32.4006 79.4133 37.8269C79.4133 43.6552 84.0127 49.1443 91.3825 49.1443C93.5487 49.1443 94.6622 48.7418 95.6773 48.3688V43.3773L90.5726 43.6252L93.2765 42.2903H100.445L99.567 43.0654C99.3286 43.2523 99.2958 43.3151 99.2284 43.5607C99.1932 43.8404 99.1614 44.7405 99.1614 45.0503V48.835H99.1623V48.835Z" fill="#F9F9F9"/>
<path d="M160.062 47.9419C158.946 47.8487 158.712 47.6636 158.712 46.4528V28.9013C158.719 28.8345 158.723 28.766 158.73 28.7014C158.866 27.6166 159.204 27.4305 160.253 26.8716H155.417L152.88 27.9882H155.465V28.0021L155.463 27.9909V47.1359C155.463 47.755 155.33 47.8491 154.551 48.7784H160.537L161.788 48.0979C161.213 48.0338 160.638 48.0038 160.062 47.9419ZM173.821 48.227C173.453 48.4122 173.083 48.6287 172.715 48.7815C171.605 49.2432 170.464 49.367 169.455 49.367C168.383 49.367 166.702 49.3033 164.988 48.1652C162.606 46.624 161.565 43.9757 161.565 41.6666C161.565 36.8939 165.796 34.5535 169.254 34.5535C170.464 34.5535 171.708 34.8301 172.715 35.4165C174.392 36.4309 174.829 37.7551 175.062 38.4638L167.173 41.3905L164.587 41.5752C165.425 45.4863 168.313 47.7635 171.504 47.7635C173.216 47.7635 174.459 47.2104 175.601 46.6877L173.821 48.227ZM170.665 39.0483C171.302 38.8336 171.638 38.648 171.638 38.2172C171.638 36.9863 170.128 35.5689 168.313 35.5689C166.968 35.5689 164.452 36.5241 164.452 39.8494C164.452 40.373 164.519 40.927 164.554 41.4833L170.665 39.0483ZM177.062 34.7642V36.7962H176.793V34.7642H176.06V34.5535H177.795V34.7642H177.062ZM180.083 36.7962V34.7454H180.071L179.388 36.7962H179.178L178.489 34.7454H178.481V36.7962H178.236V34.5535H178.655L179.278 36.3663H179.286L179.9 34.5535H180.325V36.7962H180.083Z" fill="#F9F9F9"/>
<path d="M82.581 21.5232H80.9006C80.9006 21.3112 80.7412 20.711 80.4225 19.7221H77.9967C77.6678 20.6948 77.5031 21.295 77.5031 21.5232H75.9229C75.9229 21.3981 76.3315 20.3707 77.1487 18.4414C77.9659 16.512 78.3746 15.4492 78.3746 15.2538H80.3595C80.3595 15.4366 80.7295 16.4838 81.47 18.3957C82.2105 20.3075 82.581 21.3497 82.581 21.5232ZM80.1551 18.8022C79.5564 17.1459 79.2573 16.2503 79.2573 16.1153H79.1732C79.1732 16.2404 78.8633 17.136 78.2441 18.8022H80.1551ZM89.3515 21.5232H88.0548C88.0548 21.3914 87.5734 20.6966 86.611 19.4383C85.6031 18.1124 85.0288 17.206 84.889 16.7178H84.805C84.8924 17.4207 84.9365 18.0563 84.9365 18.6248C84.9365 19.4177 84.9609 20.3842 85.0098 21.5237H83.718C83.7702 20.5286 83.7967 19.4357 83.7967 18.2446C83.7967 17.0729 83.7703 16.0759 83.718 15.2542H85.2771C85.2771 15.4246 85.7092 16.1037 86.5738 17.2912C87.4943 18.5526 88.0231 19.4083 88.1595 19.8579H88.2382C88.1541 19.1421 88.1121 18.5001 88.1121 17.9317C88.1121 17.0621 88.0876 16.1692 88.0388 15.2542H89.3516C89.3022 16.0504 89.2782 17.0473 89.2782 18.2446C89.2777 19.4509 89.3022 20.5438 89.3515 21.5232ZM96.9613 18.1716C96.9613 19.0833 96.6427 19.8795 96.0057 20.5599C95.3684 21.2408 94.4758 21.5806 93.3277 21.5806C92.8096 21.5806 92.0955 21.5613 91.1854 21.5228C91.2308 20.5532 91.2539 19.4598 91.2539 18.2437C91.2539 17.0755 91.2309 16.0786 91.1854 15.2533H92.1044C92.2549 15.2533 92.4787 15.2484 92.7764 15.239C93.0736 15.2295 93.2681 15.2246 93.359 15.2246C94.6225 15.2246 95.5385 15.5137 96.1079 16.0916C96.6768 16.6694 96.9613 17.3624 96.9613 18.1716ZM95.5282 18.3786C95.5282 17.7622 95.3322 17.2431 94.9402 16.8204C94.5482 16.3986 93.9494 16.1875 93.1444 16.1875C92.9939 16.1875 92.7876 16.2018 92.5246 16.231C92.5593 16.8733 92.5769 17.5439 92.5769 18.2437C92.5769 19.0111 92.5945 19.7718 92.6292 20.5263C92.8538 20.5678 93.0824 20.5888 93.3115 20.589C94.0642 20.589 94.6214 20.3743 94.9837 19.9458C95.3459 19.5172 95.5282 18.995 95.5282 18.3786ZM103.979 21.5232H102.424C102.018 20.3869 101.707 19.6853 101.49 19.4191C101.273 19.1523 100.923 19.0192 100.44 19.0192C100.237 19.0192 100.043 19.021 99.8574 19.0241C99.8574 19.8494 99.873 20.6823 99.9048 21.5232H98.4453C98.4907 20.5536 98.5137 19.4603 98.5137 18.2441C98.5137 17.076 98.4907 16.079 98.4453 15.2538H99.3534C99.4585 15.2538 99.678 15.2488 100.012 15.2394C100.347 15.23 100.656 15.225 100.939 15.225C102.546 15.225 103.349 15.7289 103.349 16.7371C103.349 17.5363 102.891 18.0931 101.974 18.4082V18.4804C102.327 18.57 102.637 18.8233 102.903 19.2384C103.168 19.6539 103.527 20.4155 103.979 21.5232ZM102.01 17.093C102.01 16.4542 101.562 16.1346 100.666 16.1346C100.337 16.1346 100.046 16.157 99.7943 16.2018C99.8329 16.6994 99.8519 17.3481 99.8519 18.1473C100.045 18.154 100.207 18.1567 100.34 18.1567C101.453 18.1572 102.01 17.8026 102.01 17.093ZM111.505 18.2728C111.505 19.2581 111.176 20.0753 110.518 20.7239C109.859 21.3721 109.045 21.6967 108.076 21.6967C107.152 21.6967 106.378 21.399 105.755 20.8033C105.132 20.208 104.821 19.4509 104.821 18.5332C104.821 17.5479 105.15 16.7308 105.808 16.0821C106.466 15.4339 107.28 15.1094 108.25 15.1094C109.174 15.1094 109.947 15.4061 110.57 16.0001C111.194 16.5941 111.505 17.3512 111.505 18.2728ZM110.056 18.4122C110.056 17.7412 109.869 17.197 109.495 16.7797C109.12 16.3623 108.658 16.1539 108.108 16.1539C107.597 16.1539 107.163 16.3641 106.806 16.7846C106.449 17.2051 106.27 17.7363 106.27 18.3786C106.27 19.0461 106.458 19.5894 106.835 20.0086C107.211 20.4277 107.672 20.637 108.218 20.637C108.729 20.637 109.164 20.4259 109.52 20.0036C109.877 19.5818 110.056 19.051 110.056 18.4122ZM114.474 21.5232H112.988C113.033 20.5281 113.056 19.4352 113.056 18.2441C113.056 17.0724 113.033 16.0754 112.988 15.2538H114.474C114.428 16.0629 114.405 17.0594 114.405 18.2441C114.405 19.454 114.428 20.5473 114.474 21.5232ZM122.084 18.1716C122.084 19.0833 121.765 19.8795 121.128 20.5599C120.491 21.2408 119.599 21.5806 118.45 21.5806C117.932 21.5806 117.218 21.5613 116.308 21.5228C116.354 20.5532 116.377 19.4598 116.377 18.2437C116.377 17.0755 116.354 16.0786 116.308 15.2533H117.227C117.378 15.2533 117.601 15.2484 117.899 15.239C118.196 15.2295 118.391 15.2246 118.482 15.2246C119.745 15.2246 120.661 15.5137 121.231 16.0916C121.8 16.6694 122.084 17.3624 122.084 18.1716ZM120.651 18.3786C120.651 17.7622 120.455 17.2431 120.063 16.8204C119.671 16.3986 119.072 16.1875 118.267 16.1875C118.117 16.1875 117.91 16.2018 117.647 16.231C117.682 16.8733 117.7 17.5439 117.7 18.2437C117.7 19.0111 117.717 19.7718 117.752 20.5263C117.977 20.5678 118.205 20.5888 118.434 20.589C119.187 20.589 119.744 20.3743 120.106 19.9458C120.469 19.5172 120.651 18.995 120.651 18.3786ZM132.18 21.5232H130.5C130.5 21.3112 130.34 20.711 130.021 19.7221H127.595C127.266 20.6948 127.102 21.295 127.102 21.5232H125.522C125.522 21.3981 125.931 20.3707 126.748 18.4414C127.565 16.512 127.974 15.4492 127.974 15.2538H129.959C129.959 15.4366 130.329 16.4838 131.069 18.3957C131.809 20.3075 132.18 21.3497 132.18 21.5232ZM129.754 18.8022C129.156 17.1459 128.856 16.2503 128.856 16.1153H128.772C128.772 16.2404 128.462 17.136 127.843 18.8022H129.754ZM138.305 16.8953C138.305 17.6627 137.994 18.2294 137.372 18.5951C136.751 18.9609 135.989 19.1442 135.086 19.1442C134.921 19.1442 134.804 19.1411 134.734 19.1348C134.734 19.7386 134.753 20.5343 134.792 21.5232H133.316C133.361 20.5958 133.384 19.5024 133.384 18.2441C133.384 17.0885 133.362 16.0916 133.316 15.2538H134.23C134.359 15.2538 134.607 15.2488 134.975 15.2394C135.343 15.23 135.661 15.225 135.93 15.225C136.595 15.225 137.157 15.3631 137.616 15.6392C138.074 15.9154 138.305 16.3336 138.305 16.8953ZM136.95 17.1602C136.95 16.4735 136.453 16.1297 135.459 16.1297C135.21 16.1297 134.948 16.1538 134.671 16.2018C134.71 16.8088 134.729 17.4955 134.729 18.263C134.817 18.2697 134.918 18.2724 135.034 18.2724C136.311 18.2728 136.95 17.9021 136.95 17.1602ZM144.602 16.8953C144.602 17.6627 144.291 18.2294 143.67 18.5951C143.049 18.9609 142.287 19.1442 141.383 19.1442C141.219 19.1442 141.102 19.1411 141.031 19.1348C141.031 19.7386 141.051 20.5343 141.089 21.5232H139.614C139.659 20.5958 139.682 19.5024 139.682 18.2441C139.682 17.0885 139.659 16.0916 139.614 15.2538H140.527C140.657 15.2538 140.905 15.2488 141.272 15.2394C141.64 15.23 141.958 15.225 142.228 15.225C142.893 15.225 143.455 15.3631 143.913 15.6392C144.372 15.9154 144.602 16.3336 144.602 16.8953ZM143.248 17.1602C143.248 16.4735 142.75 16.1297 141.756 16.1297C141.508 16.1297 141.245 16.1538 140.969 16.2018C141.007 16.8088 141.027 17.4955 141.027 18.263C141.114 18.2697 141.216 18.2724 141.331 18.2724C142.609 18.2728 143.248 17.9021 143.248 17.1602ZM154.898 18.2728C154.898 19.2581 154.569 20.0753 153.911 20.7239C153.252 21.3726 152.439 21.6967 151.469 21.6967C150.545 21.6967 149.771 21.399 149.149 20.8033C148.526 20.208 148.214 19.4509 148.214 18.5332C148.214 17.5479 148.543 16.7308 149.201 16.0821C149.86 15.4335 150.674 15.1094 151.643 15.1094C152.567 15.1094 153.341 15.4061 153.964 16.0001C154.586 16.5941 154.898 17.3512 154.898 18.2728ZM153.449 18.4122C153.449 17.7412 153.262 17.197 152.887 16.7797C152.513 16.3623 152.05 16.1539 151.501 16.1539C150.99 16.1539 150.556 16.3641 150.199 16.7846C149.842 17.2051 149.663 17.7363 149.663 18.3786C149.663 19.0461 149.851 19.5894 150.228 20.0086C150.604 20.4277 151.065 20.637 151.611 20.637C152.122 20.637 152.556 20.4259 152.913 20.0036C153.27 19.5818 153.449 19.051 153.449 18.4122ZM162.015 21.5232H160.718C160.718 21.3914 160.237 20.6966 159.274 19.4383C158.266 18.1124 157.692 17.206 157.552 16.7178H157.468C157.556 17.4207 157.6 18.0563 157.6 18.6248C157.6 19.4177 157.624 20.3842 157.673 21.5237H156.381C156.433 20.5286 156.46 19.4357 156.46 18.2446C156.46 17.0729 156.433 16.0759 156.381 15.2542H157.94C157.94 15.4246 158.373 16.1037 159.237 17.2912C160.158 18.5526 160.686 19.4083 160.823 19.8579H160.901C160.817 19.1421 160.775 18.5001 160.775 17.9317C160.775 17.0621 160.751 16.1692 160.702 15.2542H162.015C161.965 16.0504 161.941 17.0473 161.941 18.2446C161.941 19.4509 161.966 20.5438 162.015 21.5232Z" fill="#F9F9FA"/>
<defs>
<linearGradient id="paint0_linear" x1="32.7148" y1="14.439" x2="32.7148" y2="65.229" gradientUnits="userSpaceOnUse">
<stop stop-color="#257CB0"/>
<stop offset="0.286" stop-color="#4A93B5"/>
<stop offset="0.767" stop-color="#78BCBB"/>
<stop offset="1" stop-color="#89CFBD"/>
</linearGradient>
<linearGradient id="paint1_linear" x1="18.7524" y1="27.044" x2="54.1785" y2="27.044" gradientUnits="userSpaceOnUse">
<stop stop-color="#52C1AD"/>
<stop offset="1" stop-color="#DEE89A"/>
</linearGradient>
<linearGradient id="paint2_linear" x1="36.4647" y1="39.8345" x2="36.4647" y2="65.414" gradientUnits="userSpaceOnUse">
<stop stop-color="#EC413D"/>
<stop offset="0.167" stop-color="#DA4452"/>
<stop offset="0.575" stop-color="#B0487A"/>
<stop offset="0.862" stop-color="#954A92"/>
<stop offset="1" stop-color="#8A4A9D"/>
</linearGradient>
<linearGradient id="paint3_linear" x1="56.8692" y1="33.0128" x2="56.8692" y2="46.654" gradientUnits="userSpaceOnUse">
<stop stop-color="#F58879"/>
<stop offset="0.119" stop-color="#F69079"/>
<stop offset="0.713" stop-color="#FCB877"/>
<stop offset="1" stop-color="#FEC874"/>
</linearGradient>
</defs>
</svg>
