<svg width="32" height="32" viewBox="0 0 32 32" fill="none" xmlns="http://www.w3.org/2000/svg">
<path d="M16.0001 10.9126C13.1948 10.9126 10.9126 13.1948 10.9126 16.0001C10.9126 18.8053 13.1948 21.0876 16.0001 21.0876C18.8053 21.0876 21.0876 18.8053 21.0876 16.0001C21.0876 13.1948 18.8054 10.9126 16.0001 10.9126Z" fill="white" fill-opacity="0.8"/>
<path d="M26.0417 0H5.95837C2.67294 0 0 2.67287 0 5.95831V26.0417C0 29.3271 2.67294 32 5.95837 32H26.0417C29.3271 32 32 29.3271 32 26.0417V5.95831C32 2.67287 29.3271 0 26.0417 0ZM16 22.9625C12.1608 22.9625 9.0375 19.8391 9.0375 16C9.0375 12.1609 12.1608 9.0375 16 9.0375C19.8392 9.0375 22.9625 12.1609 22.9625 16C22.9625 19.8391 19.8392 22.9625 16 22.9625ZM25.7002 7.62556C25.5259 7.79994 25.2846 7.89994 25.0377 7.89994C24.7908 7.89994 24.5489 7.79994 24.3746 7.62556C24.2002 7.45119 24.1002 7.20931 24.1002 6.96244C24.1002 6.71563 24.2002 6.47425 24.3746 6.29994C24.5489 6.12488 24.7908 6.02494 25.0377 6.02494C25.2839 6.02494 25.5259 6.12494 25.7002 6.29994C25.8752 6.47425 25.9752 6.71556 25.9752 6.96244C25.9752 7.20931 25.8752 7.45119 25.7002 7.62556Z" fill="white" fill-opacity="0.8"/>
</svg>