<svg width="101" height="121" viewBox="0 0 101 121" fill="none" xmlns="http://www.w3.org/2000/svg">
<path d="M50.6867 120.063C50.1289 120.063 49.664 119.781 49.385 119.313C49.0131 118.657 49.3851 117.813 50.0359 117.438C61.5651 111.814 72.7225 101.972 81.3694 89.7861C89.0866 78.819 94.2934 65.9773 96.2459 52.6668C97.4546 44.6056 97.5476 36.0756 96.6178 27.3582C96.5248 26.7958 96.5248 26.2334 96.5248 25.671C96.4318 24.265 96.4318 22.7652 95.688 22.3903C95.0372 22.109 93.8285 22.0153 92.8057 21.9216C92.1549 21.9216 91.504 21.8278 90.9462 21.7341C80.6256 19.9531 59.2407 16.2974 49.571 3.26821C49.1061 2.61206 49.1991 1.76844 49.8499 1.29976C50.5008 0.831082 51.3376 0.924817 51.8025 1.58097C60.8213 13.6728 81.4624 17.2348 91.411 18.922C91.8759 19.0158 92.3408 19.0158 92.9917 19.1095C94.2934 19.2032 95.781 19.297 96.8967 19.8594C99.1282 20.9842 99.2212 23.5151 99.3142 25.5773C99.3142 26.0459 99.3142 26.6083 99.4071 27.077C100.337 36.0756 100.244 44.793 99.0352 53.1355C96.9897 66.9146 91.69 80.2251 83.6939 91.4733C74.768 104.034 63.3317 114.157 51.3376 120.063C51.0587 119.969 50.8727 120.063 50.6867 120.063Z" fill="#32EAE4"/>
<path d="M50.6863 121C49.7565 121 49.0127 120.438 48.5478 119.688C48.2688 119.125 48.2688 118.469 48.4548 117.907C48.6407 117.344 49.1056 116.876 49.6635 116.594C61.0998 110.97 72.0712 101.316 80.6251 89.2236C88.2493 78.4441 93.3631 65.696 95.3156 52.4793C96.5243 44.5118 96.6173 36.0756 95.6875 27.3582C95.5946 26.7958 95.5946 26.2334 95.5946 25.5772C95.5946 24.8274 95.5016 23.3276 95.2227 23.0464C94.8507 22.8589 93.5491 22.7652 92.8052 22.6714C92.1544 22.6714 91.5035 22.5777 90.8527 22.484C80.4392 20.703 58.7753 17.0473 48.8267 3.73686C48.0829 2.70577 48.2688 1.206 49.2916 0.456117C50.3144 -0.293767 51.802 -0.106296 52.5458 0.924795C61.3787 12.7355 81.7409 16.2037 91.5965 17.8909C91.9684 17.9847 92.5263 17.9847 93.0842 17.9847C94.4788 18.0784 96.0594 18.1721 97.3611 18.8283C100.057 20.1406 100.15 23.1401 100.243 25.296C100.243 25.7647 100.243 26.2334 100.336 26.7021C101.359 35.7944 101.173 44.6055 99.9645 52.948C97.919 66.9146 92.5263 80.3188 84.4372 91.7545C75.4184 104.409 63.7961 114.72 51.709 120.625C51.3371 120.906 51.0582 121 50.6863 121ZM50.6863 1.95589C50.5933 1.95589 50.5003 1.95589 50.4073 2.04962C50.2214 2.23709 50.1284 2.5183 50.3144 2.70577C59.7981 15.4538 80.9041 19.0157 91.1316 20.7967C91.5965 20.8905 92.2474 20.8905 92.8982 20.9842C94.0139 21.0779 95.3156 21.1717 96.1524 21.5466C97.3611 22.109 97.4541 23.7963 97.4541 25.5772C97.4541 26.1396 97.4541 26.7021 97.5471 27.1707C98.4769 35.9819 98.3839 44.6055 97.1752 52.7605C95.2227 66.2585 90.0159 79.2877 82.2058 90.3485C73.4658 102.628 62.2155 112.47 50.5003 118.188C50.3144 118.282 50.1284 118.563 50.3144 118.844C50.5003 119.125 50.7792 119.125 50.9652 119.032C62.7734 113.22 74.2097 103.19 82.9496 90.8172C90.8527 79.6626 96.1524 66.5397 98.105 52.8543C99.3137 44.6993 99.4067 35.9819 98.4769 27.077C98.3839 26.6083 98.3839 26.0459 98.3839 25.5772C98.2909 23.6088 98.1979 21.5466 96.5243 20.703C95.5946 20.2343 94.1999 20.1406 92.9912 20.0468C92.3403 20.0468 91.7825 19.9531 91.3176 19.8594C81.276 18.1721 60.356 14.6102 51.0582 2.14336C50.9652 2.04962 50.7792 1.95589 50.6863 1.95589Z" fill="#32EAE4"/>
<path d="M50.2206 120.063C50.0347 120.063 49.8487 120.063 49.5698 119.875C37.5757 114.064 26.1394 103.846 17.2135 91.2858C9.3104 80.0376 4.01066 66.8209 1.96515 53.0417C0.756441 44.793 0.663463 35.9819 1.59324 26.9833C1.68622 26.5146 1.68622 26.0459 1.68622 25.4835C1.7792 23.4213 1.87217 20.8905 4.01067 19.7656C5.1264 19.2032 6.61404 19.1095 7.91573 19.0158C8.4736 19.0158 9.03147 18.922 9.49636 18.8283C19.445 17.141 40.0861 13.5791 49.1049 1.48722C49.5698 0.831067 50.4066 0.737332 51.0575 1.20601C51.7083 1.67469 51.8013 2.51831 51.3364 3.17446C41.6667 16.2974 20.2818 19.9531 9.96125 21.7341C9.40338 21.8278 8.75253 21.8278 8.10169 21.9216C7.07893 22.0153 5.87022 22.109 5.21938 22.3902C4.47555 22.7652 4.47555 24.2649 4.38258 25.671C4.38258 26.2334 4.2896 26.7958 4.2896 27.3582C3.35982 36.0756 3.4528 44.6056 4.66151 52.6668C6.70702 65.9772 11.8208 78.819 19.538 89.6923C28.1849 101.878 39.2493 111.72 50.8715 117.344C51.5223 117.719 51.8943 118.563 51.5223 119.219C51.2434 119.781 50.7785 120.063 50.2206 120.063Z" fill="#32EAE4"/>
<path d="M50.2211 121C49.8492 121 49.5702 120.906 49.1983 120.719C37.1112 114.813 25.489 104.596 16.4701 91.8483C8.47401 80.5063 3.0813 67.1021 1.03579 53.1355C-0.172926 44.793 -0.358881 35.9819 0.663875 26.8895C0.756853 26.4209 0.756853 26.0459 0.756853 25.5773C0.849831 23.3276 0.942808 20.3281 3.63917 19.0158C4.94086 18.3596 6.52148 18.2659 7.91615 18.1721C8.47401 18.1721 9.03188 18.0784 9.40379 18.0784C19.1665 16.2974 39.6216 12.8292 48.3615 1.01854C49.1053 -0.0125461 50.593 -0.200017 51.6157 0.549867C52.6385 1.29975 52.9174 2.79952 52.0806 3.83061C42.132 17.1411 20.4682 20.8905 10.0546 22.5777C9.49677 22.6714 8.84593 22.7652 8.1021 22.7652C7.2653 22.8589 6.05659 22.8589 5.5917 23.1401C5.40575 23.4213 5.31277 24.8274 5.31277 25.5773C5.31277 26.1397 5.21979 26.7958 5.21979 27.3582C4.29001 36.0756 4.38299 44.5118 5.5917 52.4793C7.54424 65.6961 12.658 78.3503 20.2822 89.2237C28.8362 101.316 39.8075 110.97 51.2438 116.594C51.8017 116.876 52.2666 117.344 52.4525 117.907C52.6385 118.469 52.6385 119.125 52.3596 119.688C51.9876 120.438 51.1508 121 50.2211 121ZM50.2211 1.9559C50.0351 1.9559 49.9421 2.04964 49.8492 2.14337C40.6443 14.6102 19.7243 18.1721 9.58975 19.8594C9.12486 19.9531 8.56699 19.9531 7.91615 20.0469C6.70744 20.1406 5.31277 20.2343 4.38299 20.703C2.70939 21.5466 2.61641 23.7025 2.52343 25.5773C2.52343 26.1397 2.52343 26.6083 2.43045 27.1708C1.50068 36.0756 1.59365 44.793 2.80237 52.948C4.84788 66.6334 10.0546 79.7564 17.9578 90.9109C26.7906 103.378 38.1339 113.407 49.9421 119.125C50.1281 119.219 50.407 119.219 50.593 118.938C50.686 118.75 50.593 118.469 50.407 118.282C38.6918 112.564 27.4415 102.628 18.7016 90.3485C10.8914 79.2877 5.68468 66.2585 3.73214 52.7605C2.52343 44.6056 2.43045 36.0756 3.36023 27.1708C3.45321 26.7021 3.45321 26.1397 3.45321 25.5773C3.54619 23.7963 3.54619 22.109 4.7549 21.4529C5.49872 21.0779 6.80041 20.9842 7.91615 20.8905C8.56699 20.8905 9.12486 20.7967 9.68273 20.703C19.8173 19.0158 41.0163 15.3601 50.5 2.61205C50.686 2.42458 50.593 2.14337 50.407 1.9559C50.407 1.9559 50.314 1.9559 50.2211 1.9559Z" fill="#32EAE4"/>
<path d="M51.6161 104.127C51.0582 104.127 50.5933 103.846 50.3144 103.284C50.0354 102.534 50.3144 101.784 51.0582 101.409C76.5341 90.4421 87.1336 59.5094 86.4827 33.1697C72.4431 35.7006 58.4034 27.3581 49.6635 18.3595C49.1057 17.7971 49.1057 16.9535 49.6635 16.391C50.2214 15.8286 51.0582 15.8286 51.6161 16.391C60.077 25.1085 73.9307 33.3572 87.5055 30.0764C87.8774 29.9827 88.3423 30.0764 88.7142 30.3576C89.0861 30.6388 89.2721 31.0138 89.2721 31.3887C90.3878 59.0407 79.3235 92.2231 52.1739 103.94C51.988 104.127 51.802 104.127 51.6161 104.127Z" fill="#32EAE4"/>
<path d="M51.6159 105.065C50.6861 105.065 49.8493 104.503 49.4774 103.659C49.1985 103.097 49.1985 102.44 49.4774 101.878C49.7564 101.316 50.1283 100.847 50.6861 100.566C75.2323 89.9735 85.8318 59.7907 85.6458 34.2947C71.5132 36.2631 57.5665 27.8269 49.0125 19.1095C48.0828 18.1721 48.1757 16.6724 49.0125 15.8288C49.4774 15.3601 50.0353 15.1726 50.6861 15.1726C51.337 15.1726 51.8948 15.4538 52.3597 15.9225C60.6348 24.4524 74.2095 32.5137 87.3194 29.3267C87.9702 29.1392 88.7141 29.3267 89.2719 29.7016C89.8298 30.1703 90.2017 30.7327 90.2017 31.4826C91.3175 59.5095 80.1601 93.0668 52.5457 104.971C52.2668 104.971 51.8948 105.065 51.6159 105.065ZM87.4124 32.045V33.1698C88.0632 59.6032 77.1848 91.1921 51.43 102.253C51.244 102.347 51.244 102.44 51.151 102.534C51.151 102.628 51.058 102.722 51.151 102.909C51.244 103.097 51.5229 103.284 51.8019 103.19C78.5795 91.5671 89.4579 58.8534 88.3422 31.4826C88.3422 31.3889 88.2492 31.2014 88.1562 31.1076C88.0632 31.0139 87.8773 31.0139 87.7843 31.0139C73.9306 34.3884 59.705 26.0459 51.058 17.0473C50.9651 16.9536 50.8721 16.9536 50.6861 16.8598C50.5932 16.8598 50.5002 16.8598 50.3142 16.9536C50.1283 17.1411 50.1283 17.4223 50.3142 17.6097C58.6822 26.2334 72.5359 34.5759 86.2966 32.1387L87.4124 32.045Z" fill="#32EAE4"/>
<path d="M50.6867 104.128C50.5007 104.128 50.3148 104.128 50.1288 104.034C22.9793 92.3169 11.4501 59.6032 12.1939 32.4199C12.1939 31.9512 12.3798 31.5763 12.7517 31.2951C13.1237 31.0139 13.4956 30.9201 13.9605 31.0139C27.4422 34.2946 41.2959 25.5772 49.6639 16.3911C50.2218 15.8287 51.0586 15.8287 51.6165 16.2974C52.1743 16.8598 52.1743 17.7034 51.7095 18.2658C43.0625 27.6394 29.1158 36.4505 14.9832 34.0134C14.7973 59.8844 25.8616 90.3484 51.2446 101.315C51.9884 101.597 52.2673 102.44 51.9884 103.19C51.7095 103.846 51.2446 104.128 50.6867 104.128Z" fill="#32EAE4"/>
<path d="M50.6865 105.065C50.4076 105.065 50.0357 104.971 49.7568 104.878C22.1423 92.9731 10.5201 59.8845 11.2639 32.3262C11.2639 31.5764 11.6358 30.9202 12.1937 30.5453C12.7516 30.0766 13.4954 29.9828 14.1462 30.1703C27.2561 33.3573 40.7379 24.8274 49.0129 15.8288C49.8497 14.8914 51.3374 14.7977 52.2672 15.7351C53.1969 16.5787 53.2899 18.0784 52.3601 19.0158C43.8992 28.2019 30.0455 37.1067 15.8198 35.232C16.0058 60.3532 26.9772 89.9736 51.5233 100.566C52.732 101.034 53.2899 102.44 52.732 103.659C52.4531 104.503 51.6163 105.065 50.6865 105.065ZM13.5884 31.9513C13.4954 31.9513 13.4024 31.9513 13.3094 32.045C13.2165 32.1388 13.1235 32.2325 13.1235 32.42C12.4726 59.3221 23.723 91.5671 50.5006 103.19C50.6865 103.284 51.0584 103.19 51.1514 102.909C51.2444 102.628 51.1514 102.44 50.8725 102.253C25.2106 91.1921 13.8673 60.0719 14.0533 34.1072V32.9824L15.169 33.1699C28.9297 35.607 42.7834 26.7958 51.0584 17.7035C51.2444 17.516 51.2444 17.2348 51.0584 17.0473C50.8725 16.8599 50.5936 16.8599 50.4076 17.0473C41.8536 26.4209 27.628 35.232 13.7743 31.9513C13.6814 31.9513 13.5884 31.9513 13.5884 31.9513Z" fill="#32EAE4"/>
<path d="M50.6868 72.2573C50.3148 72.2573 49.9429 72.0699 49.664 71.8824L34.7875 56.8847C34.2297 56.3223 34.2297 55.4787 34.7875 54.9163C35.3454 54.3539 36.1822 54.3539 36.7401 54.9163L50.5938 68.8829L71.8857 45.5427C72.4436 44.9803 73.2804 44.9803 73.8382 45.449C74.3961 46.0114 74.3961 46.855 73.9312 47.4174L51.6165 71.7887C51.4306 72.0699 51.0587 72.2573 50.6868 72.2573Z" fill="#F9F9F9"/>
<path d="M50.6863 73.1948C50.0354 73.1948 49.4775 72.9136 49.0127 72.5386L34.1362 57.5409C33.6713 57.0723 33.4854 56.5099 33.4854 55.8537C33.4854 55.1976 33.7643 54.6351 34.1362 54.1665C35.066 53.2291 36.5536 53.2291 37.3904 54.1665L50.5933 67.4769L71.2344 44.8866C72.0712 43.9493 73.5588 43.8556 74.4886 44.7929C75.4184 45.6365 75.5113 47.1363 74.5816 48.0737L52.2669 72.4449C51.9879 72.9136 51.3371 73.1948 50.6863 73.1948ZM35.8098 55.385C35.7168 55.385 35.5309 55.385 35.4379 55.4788C35.2519 55.6662 35.2519 55.9474 35.4379 56.1349L50.3143 71.1326C50.4073 71.2263 50.5003 71.2263 50.6863 71.2263C50.7792 71.2263 50.8722 71.1326 50.9652 71.0389L73.2799 46.6676C73.4658 46.4802 73.4658 46.1989 73.2799 46.0115C73.0939 45.824 72.815 45.824 72.629 46.0115L50.6863 70.1952L36.0887 55.4788C36.0887 55.385 35.9028 55.385 35.8098 55.385Z" fill="#F7F7F7"/>
</svg>
