<svg width="75" height="109" viewBox="0 0 75 109" fill="none" xmlns="http://www.w3.org/2000/svg">
<path d="M49.9597 60.5014C49.5513 60.5014 49.0408 60.2962 48.7345 59.8859C48.224 59.1677 48.3261 58.2444 49.0408 57.7315C52.0018 55.372 50.7766 52.4995 50.3682 51.6788C49.245 49.627 46.7945 47.9856 43.7315 48.9089C41.0768 49.8322 38.4221 52.6021 36.0737 55.0642C35.1548 55.9875 34.338 56.9108 33.419 57.7315C32.8064 58.347 31.7854 58.2445 31.2749 57.6289C30.6623 57.0134 30.7644 55.9875 31.377 55.4746C32.1938 54.7564 33.0106 53.8331 33.9296 52.9098C36.4821 50.1399 39.4431 47.0623 42.9146 45.9338C47.6114 44.395 51.5934 47.0623 53.227 50.1399C55.0649 53.628 54.2481 57.6289 51.0829 60.091C50.6745 60.3988 50.2661 60.5014 49.9597 60.5014Z" fill="#32EAE4" stroke="#32EAE4" stroke-width="2" stroke-miterlimit="10"/>
<path d="M60.1697 69.7343C59.7613 69.7343 59.3529 69.6317 59.1487 69.324C58.5361 68.7084 58.5361 67.7851 59.1487 67.1696C61.3949 64.8101 61.8034 62.2453 60.0676 60.091C58.5361 58.1418 55.2688 57.1159 52.1036 59.1677C50.0615 60.5013 48.1215 62.4505 46.2837 64.2971C45.3648 65.2204 44.4458 66.1437 43.629 66.9644C43.0164 67.58 41.9953 67.4774 41.4848 66.8618C40.8722 66.2463 40.9743 65.2204 41.5869 64.7075C42.4038 63.8868 43.3227 63.0661 44.1395 62.1428C46.1816 60.091 48.2236 58.0392 50.572 56.5004C55.1666 53.6279 60.0676 55.1667 62.5181 58.1418C64.5601 60.6039 65.4791 65.0152 61.3949 69.2214C60.9865 69.5291 60.5781 69.7343 60.1697 69.7343Z" fill="#32EAE4" stroke="#32EAE4" stroke-width="2" stroke-miterlimit="10"/>
<path d="M45.2633 103.999C44.8549 103.999 44.4464 103.896 44.1401 103.589C43.5275 102.973 43.5275 102.05 44.1401 101.434C46.6927 98.8695 49.2453 96.3048 51.7979 93.7401C56.8009 88.7132 62.0082 83.5838 66.9091 78.3518C69.3596 75.7871 71.5038 71.9913 70.7891 69.6317C70.4827 68.5033 69.2575 67.58 67.3175 67.1696C63.3355 66.2463 59.2514 70.4524 56.0862 73.8379C55.2694 74.6586 54.4525 75.4793 53.7378 76.1974C53.1252 76.8129 52.1042 76.7104 51.5937 76.0948C50.981 75.4793 51.0831 74.4534 51.6958 73.9405C52.4105 73.3249 53.1252 72.5042 53.942 71.6835C57.5156 67.9903 62.5187 62.8609 68.1344 64.1945C71.9122 65.1178 73.3416 67.1696 73.75 68.811C74.8732 72.7094 72.0143 77.5311 69.1554 80.5061C64.1523 85.7382 59.0472 90.9702 53.942 95.8944C51.3895 98.4592 48.8369 101.024 46.2843 103.486C46.0801 103.896 45.6717 103.999 45.2633 103.999Z" fill="#32EAE4" stroke="#32EAE4" stroke-width="2" stroke-miterlimit="10"/>
<path d="M38.5243 108C35.1549 108 31.8876 106.051 28.5182 104.102L28.4161 103.999C27.0887 103.178 25.7614 102.46 24.434 101.845C19.2268 98.9722 14.7342 96.6127 10.7522 90.3548C5.34076 81.8399 3.2987 73.5302 4.83024 65.7335C5.03445 64.605 5.34076 63.3739 5.54496 62.2455C6.36179 58.3471 7.07651 54.5513 7.38282 50.5504C7.89334 44.4976 7.48492 39.3682 3.91131 34.1362C3.605 33.7258 3.2987 33.2129 2.99239 32.8025C0.950323 29.93 -0.172812 28.8015 2.89028 24.5954C4.31973 22.6462 6.36179 21.8255 8.81226 22.1333C15.449 22.8514 22.392 29.1093 25.5572 36.4957C26.0677 37.6242 26.374 38.5475 26.4761 39.4708L36.9927 28.9041C37.8096 28.0834 38.7285 26.955 39.7495 25.8265C43.4252 21.6203 48.0199 16.3883 53.125 15.978C55.9839 15.7728 58.6386 16.9013 60.2723 18.953C62.008 21.21 62.3143 24.2876 61.2933 27.1601C60.4765 29.3145 58.7407 31.1611 57.2092 32.8025C56.8007 33.2129 56.3923 33.6232 55.9839 34.0336L41.8937 49.7296C41.2811 50.3452 40.3621 50.4478 39.7495 49.8322C39.1369 49.2167 39.0348 48.2934 39.6474 47.6779L53.7377 31.9818C54.1461 31.5714 54.5545 31.0585 54.9629 30.6481C56.3923 29.2119 57.8218 27.6731 58.4344 26.0317C59.1491 24.0825 58.9449 22.1333 57.8218 20.697C56.8007 19.3634 55.2692 18.7479 53.4313 18.8504C49.5514 19.1582 45.4673 23.8773 42.0979 27.6731C41.0769 28.9041 40.0558 30.0326 39.1369 30.9559L25.5572 44.7028C24.9446 45.3183 24.1277 45.3183 23.5151 44.8054C22.9025 44.2924 22.8004 43.3691 23.3109 42.7536C23.9235 41.9329 23.7193 40.0863 22.6983 37.7268C19.9415 31.3663 13.8153 25.8265 8.40385 25.2109C7.07651 25.0058 6.05548 25.4161 5.34076 26.442C3.70711 28.5964 5.23866 30.9559 7.48492 34.0336C7.89334 34.5465 6.15758 31.9818 6.46389 32.3922C10.548 38.4449 10.9564 44.0873 10.4459 50.8581C10.1396 55.0643 9.32278 58.9626 8.50596 62.861C8.30175 63.9895 7.99544 65.2205 7.79123 66.349C6.46389 73.325 8.30175 80.9166 13.3048 88.7133C16.7763 94.2531 20.7583 96.4075 25.8635 99.0748C27.1908 99.7929 28.5182 100.511 29.8455 101.332L29.9476 101.434C36.278 105.128 39.7495 107.077 44.5484 101.127C45.0589 100.511 46.0799 100.408 46.6925 100.921C47.3052 101.434 47.4073 102.46 46.8967 103.076C44.14 106.666 41.2811 108 38.5243 108Z" fill="#32EAE4" stroke="#32EAE4" stroke-width="2" stroke-miterlimit="10"/>
<path d="M27.4974 21.5177C27.089 21.5177 26.6806 21.3125 26.3743 21.0048L17.185 10.7459C16.5724 10.1304 16.6745 9.10447 17.2871 8.59152C17.8997 7.97599 18.9208 8.07858 19.4313 8.69411L28.6206 18.953C29.2332 19.5685 29.1311 20.5944 28.5185 21.1073C28.2122 21.4151 27.9059 21.5177 27.4974 21.5177Z" fill="#F7F9F9" stroke="#F9F9F9" stroke-width="2" stroke-miterlimit="10"/>
<path d="M30.5599 16.3883C29.743 16.3883 29.0283 15.6702 29.0283 14.8495V2.53883C29.0283 1.71812 29.743 1 30.5599 1C31.3767 1 32.0914 1.71812 32.0914 2.53883V14.8495C32.0914 15.6702 31.4788 16.3883 30.5599 16.3883Z" fill="#F7F9F9" stroke="#F9F9F9" stroke-width="2" stroke-miterlimit="10"/>
<path d="M34.6441 20.4918C34.2357 20.4918 33.8273 20.3892 33.521 20.0814C32.9084 19.4659 32.9084 18.5426 33.521 17.927L41.6892 9.71995C42.3019 9.10442 43.2208 9.10442 43.8334 9.71995C44.446 10.3355 44.446 11.2588 43.8334 11.8743L35.6652 20.0814C35.4609 20.3892 35.0525 20.4918 34.6441 20.4918Z" fill="#F7F9F9" stroke="#F9F9F9" stroke-width="2" stroke-miterlimit="10"/>
</svg>
