<svg width="32" height="32" viewBox="0 0 32 32" fill="none" xmlns="http://www.w3.org/2000/svg">
<path d="M26 0H5.99998C2.68597 0 0 2.68597 0 5.99998V26C0 29.314 2.68597 32 5.99998 32H26C29.314 32 32 29.314 32 26V5.99998C32.0001 2.68597 29.314 0 26 0ZM23.96 12.408L23.972 12.918C23.972 18.126 20.01 24.126 12.764 24.126C10.54 24.126 8.46996 23.4741 6.72598 22.356C7.03401 22.392 7.34797 22.412 7.666 22.412C9.51202 22.412 11.21 21.782 12.558 20.726C10.834 20.694 9.37998 19.554 8.87799 17.99C9.11997 18.034 9.36399 18.058 9.61998 18.058C9.97999 18.058 10.328 18.012 10.658 17.922C8.85595 17.558 7.49797 15.9681 7.49797 14.0601V14.0101C8.02995 14.3061 8.63595 14.482 9.28195 14.5041C8.22594 13.7981 7.52994 12.5921 7.52994 11.2261C7.52994 10.5041 7.72396 9.82808 8.06193 9.24609C10.0039 11.6301 12.9079 13.1981 16.1819 13.3621C16.1139 13.0741 16.08 12.7721 16.08 12.4641C16.08 10.2901 17.8439 8.52608 20.02 8.52608C21.152 8.52608 22.176 9.00405 22.8959 9.77005C23.792 9.59202 24.636 9.26405 25.398 8.81404C25.104 9.73406 24.48 10.5061 23.666 10.994C24.46 10.9 25.222 10.686 25.928 10.374C25.4 11.162 24.73 11.856 23.96 12.408Z" fill="white" fill-opacity="0.8"/>
</svg>
